# xmcd CD database file
#
# Track frame offsets:
#	150
#	13602
#	25035
#	39522
#	53996
#	67903
#	80950
#	92813
#	107628
#	121357
#	134734
#	149308
#	161895
#	174850
#	186369
#	198360
#	211868
#	225489
#	239812
#	252396
#	265935
#	278735
#	292355
#	307680
#	322244
#	335260
#
# Disc length: 4619 seconds
#
# Revision: 0
# Processed by: cddbd v1.5.2PL0 Copyright (c) Steve Scherf et al.
# Submitted via: CDex 1.70beta2
#
DISCID=8912091a
DTITLE=Luciano Zuccheri and Quintetto Ritimico di Milano - Jazz in Italy in the 40s
DYEAR=1941
DGENRE=Jazz
TTITLE0=La pupa della nonna (Cesare Valabrega -Francesco Ferrari)
TTITLE1=Ritmando sotto l'ombrello (Manuel De Serra -Cariga)
TTITLE2=Sussurro di primavera (Aldo Saitto -Alessandro Derevitsky)
TTITLE3=Lacrime innamorate (Mario Di Stefano)
TTITLE4=Improvviso (Luciano Zuccheri)
TTITLE5=In gamba come me (Valerio Vancheri)
TTITLE6=Vagone letto (Luciano Zuccheri)
TTITLE7=Sarà l'amore,? (Luciano Zuccheri)
TTITLE8=Io cerco la Titina (Giuseppe Di Napoli -Leo Daniderf)
TTITLE9=Ritmo allegro (Luciano Zuccheri)
TTITLE10=A zonzo (Riccardo Morbelli -Gino Filippini)
TTITLE11=Che ritmo senti che ritmo (Ottavlo De Santis -Natalino Otto) 
TTITLE12=L'uccellin volò volò (Rolando Rolandi -Luciano Zuccheri) 
TTITLE13=Accordando il violino (Giovanni Ferrero )
TTITLE14=Moto perpetuo (Luciano Zuccheri)
TTITLE15=Ritmo 700 (Luciano Zuccheri)
TTITLE16=Orientale (Luciano Zuccheri)
TTITLE17=Preludio in Do (Cosimo Di Ceglie)
TTITLE18=Il ritmo dell'amore (Romero Alvaro)
TTITLE19=Vecchia gente (The Old Folks At Home) (Traditional)
TTITLE20=Malinconia negra (Romero Alvaro)
TTITLE21=Programma BBC (Francesco Paolo Ricci)
TTITLE22=Vecchio negro (? Trama)
TTITLE23=Domenica allegra (Franco Mojoli)
TTITLE24=Dove mai sarà (I Wonder Where My Baby Is Tonight)
TTITLE25=Prima tanto dopo niente (Ezio Gheri -Canzio Allegriti)
EXTD=YEAR: 1941
EXTT0=
EXTT1=
EXTT2=
EXTT3=
EXTT4=
EXTT5=
EXTT6=
EXTT7=
EXTT8=
EXTT9=
EXTT10=
EXTT11=
EXTT12=
EXTT13=
EXTT14=
EXTT15=
EXTT16=
EXTT17=
EXTT18=
EXTT19=
EXTT20=
EXTT21=
EXTT22=
EXTT23=
EXTT24=
EXTT25=
PLAYORDER=
